<?xml version="1.0"?>
<svg xmlns="http://www.w3.org/2000/svg" xmlns:xlink="http://www.w3.org/1999/xlink" xmlns:svgjs="http://svgjs.com/svgjs" version="1.1" width="512" height="512" x="0" y="0" viewBox="0 0 512 512.00015" style="enable-background:new 0 0 512 512" xml:space="preserve" class=""><g><path xmlns="http://www.w3.org/2000/svg" d="m315.734375 307.199219c0-4.710938-3.820313-8.53125-8.535156-8.53125h-102.398438c-4.714843 0-8.535156 3.820312-8.535156 8.53125v107.648437c0 .726563.144531 1.433594.207031 2.152344-.296875 1.9375.097656 3.921875 1.109375 5.605469.1875.578125.289063 1.183593.511719 1.707031l28.621094 71.550781c3.847656 9.757813 13.28125 16.164063 23.773437 16.136719h11.023438c10.480469.03125 19.910156-6.351562 23.773437-16.09375l28.613282-71.542969c.222656-.574219.324218-1.167969.511718-1.707031 1.019532-1.6875 1.414063-3.675781 1.117188-5.625.0625-.714844.207031-1.414062.207031-2.140625zm-68.269531 8.535156v25.597656c0 4.714844 3.824218 8.535157 8.535156 8.535157 4.714844 0 8.535156-3.820313 8.535156-8.535157v-25.597656h34.132813v83.941406c-5.433594-3.3125-11.652344-5.125-18.015625-5.25-5.667969.027344-11.226563 1.546875-16.117188 4.40625v-23.367187c0-4.710938-3.820312-8.53125-8.535156-8.53125-4.710938 0-8.535156 3.820312-8.535156 8.53125v23.367187c-4.890625-2.859375-10.449219-4.378906-16.117188-4.40625-6.363281.125-12.582031 1.9375-18.015625 5.25v-83.941406zm31.027344 151.175781c-14.023438-7.628906-30.960938-7.628906-44.984376 0l-18.816406-47.027344c4.347656-4.726562 10.269532-7.707031 16.65625-8.386718 7.460938.898437 14.0625 5.253906 17.824219 11.757812.199219.253906.496094.359375.710937.589844.296876.402344.632813.773438.996094 1.117188.277344.152343.5625.285156.855469.398437.410156.242187.835937.445313 1.277344.617187.722656.273438 1.476562.445313 2.246093.511719.265626 0 .503907.179688.769532.179688.261718 0 .433594-.085938.65625-.105469.386718-.035156.773437-.097656 1.152344-.1875.605468-.132812 1.195312-.339844 1.757812-.613281.367188-.15625.71875-.339844 1.058594-.554688.160156-.101562.332031-.136719.484375-.246093.289062-.261719.554687-.546876.792969-.855469.320312-.261719.621093-.546875.898437-.851563 3.75-6.488281 10.328125-10.84375 17.765625-11.757812h.058594c6.390625.671875 12.3125 3.65625 16.65625 8.386718zm-16.980469 28.023438h-11.023438c-3.492187.011718-6.636719-2.117188-7.917969-5.367188l-2.722656-6.828125c9.84375-6.304687 22.460938-6.304687 32.304688 0l-2.722656 6.828125c-1.28125 3.25-4.425782 5.378906-7.917969 5.367188zm0 0" fill="#ef3365" data-original="#000000" style="" class=""/><path xmlns="http://www.w3.org/2000/svg" d="m128.050781 171.605469c.519531 4.667969 4.714844 8.042969 9.386719 7.542969 13.390625-2.394532 27.128906 1.640624 37.09375 10.898437 25.746094 24.847656 21.769531 81.800781 21.726562 82.371094-.179687 2.265625.554688 4.511719 2.035157 6.234375 1.484375 1.722656 3.589843 2.785156 5.859375 2.949218h.648437c4.46875.011719 8.1875-3.421874 8.53125-7.878906.207031-2.660156 4.652344-65.464844-26.851562-95.921875-13.609375-12.820312-32.402344-18.589843-50.859375-15.617187-2.253906.242187-4.320313 1.375-5.742188 3.140625-1.417968 1.765625-2.078125 4.027343-1.828125 6.28125zm0 0" fill="#ef3365" data-original="#000000" style="" class=""/><path xmlns="http://www.w3.org/2000/svg" d="m364.859375 221.609375c4.558594 1.109375 9.152344-1.667969 10.292969-6.21875 1.140625-4.546875-1.605469-9.164063-6.144532-10.335937-21.929687-5.46875-39.355468-2.730469-51.824218 8.175781-22.722656 19.859375-18.652344 59.121093-18.464844 60.773437.476562 4.324219 4.132812 7.597656 8.480469 7.597656.316406 0 .632812-.019531.949219-.054687 4.667968-.515625 8.039062-4.710937 7.542968-9.382813 0-.328124-3.097656-32.222656 12.730469-46.082031 8.011719-7.003906 20.277344-8.480469 36.4375-4.472656zm0 0" fill="#ef3365" data-original="#000000" style="" class=""/><path xmlns="http://www.w3.org/2000/svg" d="m256 238.933594c4.714844 0 8.535156-3.820313 8.535156-8.535156 0-34.617188 5.679688-130.148438 31.632813-156.097657 2.21875-2.144531 3.105469-5.316406 2.324219-8.300781s-3.109376-5.3125-6.09375-6.09375c-2.984376-.78125-6.15625.109375-8.296876 2.328125-36.214843 36.214844-36.636718 162.796875-36.636718 168.164063 0 4.714843 3.824218 8.535156 8.535156 8.535156zm0 0" fill="#ef3365" data-original="#000000" style="" class=""/><path xmlns="http://www.w3.org/2000/svg" d="m341.332031 119.464844c4.714844 0 8.535157-3.820313 8.535157-8.53125v-17.066406c0-4.714844-3.820313-8.535157-8.535157-8.535157-4.710937 0-8.53125 3.820313-8.53125 8.535157v17.066406c0 4.710937 3.820313 8.53125 8.53125 8.53125zm0 0" fill="#ef3365" data-original="#000000" style="" class=""/><path xmlns="http://www.w3.org/2000/svg" d="m384 128c0-4.710938-3.820312-8.535156-8.535156-8.535156h-17.066406c-4.710938 0-8.53125 3.824218-8.53125 8.535156s3.820312 8.535156 8.53125 8.535156h17.066406c4.714844 0 8.535156-3.824218 8.535156-8.535156zm0 0" fill="#ef3365" data-original="#000000" style="" class=""/><path xmlns="http://www.w3.org/2000/svg" d="m332.800781 162.132812c0 4.714844 3.820313 8.535157 8.53125 8.535157 4.714844 0 8.535157-3.820313 8.535157-8.535157v-17.066406c0-4.710937-3.820313-8.53125-8.535157-8.53125-4.710937 0-8.53125 3.820313-8.53125 8.53125zm0 0" fill="#ef3365" data-original="#000000" style="" class=""/><path xmlns="http://www.w3.org/2000/svg" d="m307.199219 136.535156h17.066406c4.714844 0 8.535156-3.824218 8.535156-8.535156s-3.820312-8.535156-8.535156-8.535156h-17.066406c-4.710938 0-8.53125 3.824218-8.53125 8.535156s3.820312 8.535156 8.53125 8.535156zm0 0" fill="#ef3365" data-original="#000000" style="" class=""/><path xmlns="http://www.w3.org/2000/svg" d="m469.332031 68.265625c4.714844 0 8.535157-3.820313 8.535157-8.53125v-17.066406c0-4.714844-3.820313-8.535157-8.535157-8.535157-4.710937 0-8.53125 3.820313-8.53125 8.535157v17.066406c0 4.710937 3.820313 8.53125 8.53125 8.53125zm0 0" fill="#ef3365" data-original="#000000" style="" class=""/><path xmlns="http://www.w3.org/2000/svg" d="m486.398438 85.332031h17.066406c4.714844 0 8.535156-3.820312 8.535156-8.53125 0-4.714843-3.820312-8.535156-8.535156-8.535156h-17.066406c-4.710938 0-8.53125 3.820313-8.53125 8.535156 0 4.710938 3.820312 8.53125 8.53125 8.53125zm0 0" fill="#ef3365" data-original="#000000" style="" class=""/><path xmlns="http://www.w3.org/2000/svg" d="m469.332031 85.332031c-4.710937 0-8.53125 3.820313-8.53125 8.535157v17.066406c0 4.710937 3.820313 8.53125 8.53125 8.53125 4.714844 0 8.535157-3.820313 8.535157-8.53125v-17.066406c0-4.714844-3.820313-8.535157-8.535157-8.535157zm0 0" fill="#ef3365" data-original="#000000" style="" class=""/><path xmlns="http://www.w3.org/2000/svg" d="m435.199219 85.332031h17.066406c4.714844 0 8.535156-3.820312 8.535156-8.53125 0-4.714843-3.820312-8.535156-8.535156-8.535156h-17.066406c-4.710938 0-8.53125 3.820313-8.53125 8.535156 0 4.710938 3.820312 8.53125 8.53125 8.53125zm0 0" fill="#ef3365" data-original="#000000" style="" class=""/><path xmlns="http://www.w3.org/2000/svg" d="m145.066406 51.199219c4.714844 0 8.535156-3.820313 8.535156-8.53125v-17.066407c0-4.714843-3.820312-8.535156-8.535156-8.535156-4.710937 0-8.53125 3.820313-8.53125 8.535156v17.066407c0 4.710937 3.820313 8.53125 8.53125 8.53125zm0 0" fill="#ef3365" data-original="#000000" style="" class=""/><path xmlns="http://www.w3.org/2000/svg" d="m162.132812 68.265625h17.066407c4.714843 0 8.535156-3.820313 8.535156-8.53125 0-4.714844-3.820313-8.535156-8.535156-8.535156h-17.066407c-4.710937 0-8.53125 3.820312-8.53125 8.535156 0 4.710937 3.820313 8.53125 8.53125 8.53125zm0 0" fill="#ef3365" data-original="#000000" style="" class=""/><path xmlns="http://www.w3.org/2000/svg" d="m153.601562 93.867188v-17.066407c0-4.714843-3.820312-8.535156-8.535156-8.535156-4.710937 0-8.53125 3.820313-8.53125 8.535156v17.066407c0 4.710937 3.820313 8.53125 8.53125 8.53125 4.714844 0 8.535156-3.820313 8.535156-8.53125zm0 0" fill="#ef3365" data-original="#000000" style="" class=""/><path xmlns="http://www.w3.org/2000/svg" d="m110.933594 68.265625h17.066406c4.714844 0 8.535156-3.820313 8.535156-8.53125 0-4.714844-3.820312-8.535156-8.535156-8.535156h-17.066406c-4.714844 0-8.535156 3.820312-8.535156 8.535156 0 4.710937 3.820312 8.53125 8.535156 8.53125zm0 0" fill="#ef3365" data-original="#000000" style="" class=""/><path xmlns="http://www.w3.org/2000/svg" d="m59.734375 187.734375c0 4.710937 3.820313 8.53125 8.53125 8.53125 4.714844 0 8.535156-3.820313 8.535156-8.53125v-17.066406c0-4.714844-3.820312-8.535157-8.535156-8.535157-4.710937 0-8.53125 3.820313-8.53125 8.535157zm0 0" fill="#ef3365" data-original="#000000" style="" class=""/><path xmlns="http://www.w3.org/2000/svg" d="m85.332031 213.332031h17.066407c4.714843 0 8.535156-3.820312 8.535156-8.53125 0-4.714843-3.820313-8.535156-8.535156-8.535156h-17.066407c-4.710937 0-8.53125 3.820313-8.53125 8.535156 0 4.710938 3.820313 8.53125 8.53125 8.53125zm0 0" fill="#ef3365" data-original="#000000" style="" class=""/><path xmlns="http://www.w3.org/2000/svg" d="m68.265625 247.464844c4.714844 0 8.535156-3.820313 8.535156-8.53125v-17.066406c0-4.714844-3.820312-8.535157-8.535156-8.535157-4.710937 0-8.53125 3.820313-8.53125 8.535157v17.066406c0 4.710937 3.820313 8.53125 8.53125 8.53125zm0 0" fill="#ef3365" data-original="#000000" style="" class=""/><path xmlns="http://www.w3.org/2000/svg" d="m51.199219 196.265625h-17.066407c-4.710937 0-8.53125 3.820313-8.53125 8.535156 0 4.710938 3.820313 8.53125 8.53125 8.53125h17.066407c4.714843 0 8.535156-3.820312 8.535156-8.53125 0-4.714843-3.820313-8.535156-8.535156-8.535156zm0 0" fill="#ef3365" data-original="#000000" style="" class=""/><path xmlns="http://www.w3.org/2000/svg" d="m29.867188 136.535156c16.496093 0 29.867187-13.375 29.867187-29.867187 0-16.496094-13.371094-29.867188-29.867187-29.867188-16.496094 0-29.867188 13.371094-29.867188 29.867188 0 16.492187 13.371094 29.867187 29.867188 29.867187zm0-42.667968c7.070312 0 12.800781 5.730468 12.800781 12.800781 0 7.066406-5.730469 12.796875-12.800781 12.796875-7.070313 0-12.800782-5.730469-12.800782-12.796875 0-7.070313 5.730469-12.800781 12.800782-12.800781zm0 0" fill="#ef3365" data-original="#000000" style="" class=""/><path xmlns="http://www.w3.org/2000/svg" d="m430.933594 238.933594c16.496094 0 29.867187-13.371094 29.867187-29.867188s-13.371093-29.867187-29.867187-29.867187-29.867188 13.371093-29.867188 29.867187 13.371094 29.867188 29.867188 29.867188zm0-42.667969c7.070312 0 12.800781 5.730469 12.800781 12.800781 0 7.070313-5.730469 12.800782-12.800781 12.800782-7.070313 0-12.800782-5.730469-12.800782-12.800782 0-7.070312 5.730469-12.800781 12.800782-12.800781zm0 0" fill="#ef3365" data-original="#000000" style="" class=""/><path xmlns="http://www.w3.org/2000/svg" d="m354.132812 59.734375c16.496094 0 29.867188-13.371094 29.867188-29.867187 0-16.496094-13.371094-29.867188-29.867188-29.867188-16.496093 0-29.867187 13.371094-29.867187 29.867188 0 7.921874 3.148437 15.515624 8.75 21.117187s13.195313 8.75 21.117187 8.75zm0-42.667969c7.070313 0 12.800782 5.730469 12.800782 12.800782 0 7.070312-5.730469 12.800781-12.800782 12.800781-7.070312 0-12.800781-5.730469-12.800781-12.800781 0-7.070313 5.730469-12.800782 12.800781-12.800782zm0 0" fill="#ef3365" data-original="#000000" style="" class=""/><path xmlns="http://www.w3.org/2000/svg" d="m213.332031 162.132812c0 4.714844 3.820313 8.535157 8.535157 8.535157 4.710937 0 8.53125-3.820313 8.53125-8.535157-1.511719-26.652343-11.03125-52.226562-27.304688-73.386718-2.828125-3.769532-8.175781-4.535156-11.945312-1.707032-3.773438 2.828126-4.535157 8.175782-1.707032 11.949219 13.953125 18.265625 22.257813 40.214844 23.890625 63.144531zm0 0" fill="#ef3365" data-original="#000000" style="" class=""/></g></svg>
