<?xml version="1.0"?>
<svg xmlns="http://www.w3.org/2000/svg" xmlns:xlink="http://www.w3.org/1999/xlink" xmlns:svgjs="http://svgjs.com/svgjs" version="1.1" width="512" height="512" x="0" y="0" viewBox="0 0 512 512.0102" style="enable-background:new 0 0 512 512" xml:space="preserve" class=""><g><path xmlns="http://www.w3.org/2000/svg" d="m.0078125 247.476562c-.1093745 8.003907 3.5820315 15.585938 9.9492185 20.4375 6.371094 4.851563 14.660157 6.394532 22.347657 4.164063 10.835937 17.957031 23.261718 34.90625 37.121093 50.644531 1.136719 1.367188 2.261719 2.75 3.414063 4.113282-5.414063 7.820312-6.039063 18-1.621094 26.421874 4.417969 8.421876 13.144531 13.695313 22.65625 13.6875 2.753906-.035156 5.484375-.519531 8.082031-1.433593 7.089844 11.039062 12.492188 23.082031 16.023438 35.71875-8.777344.769531-15.527344 8.101562-15.574219 16.914062v17.066407c0 9.425781 7.640625 17.066406 17.066406 17.066406v25.597656c0 18.851562 15.285156 34.136719 34.136719 34.136719h51.199219c18.851562 0 34.132812-15.285157 34.132812-34.136719v-25.597656c9.425782 0 17.066406-7.640625 17.066406-17.066406v-17.066407c-.046874-8.78125-6.746093-16.09375-15.488281-16.90625 7.808594-29.40625 27.460938-53.273437 48.28125-78.335937l.402344-.484375c10.628906 4.339843 22.851563 1.035156 29.847656-8.070313 6.992188-9.105468 7.035157-21.765625.101563-30.917968 2.5625-3.851563 5.003906-7.757813 7.222656-11.726563 8.875-15.734375 15.429688-32.667969 19.460938-50.277344 11.605468-2.007812 20.320312-11.707031 21.082031-23.457031.765625-11.753906-6.625-22.496094-17.871094-25.984375-1.613281-18.382813-6.25-36.371094-13.722656-53.242187 3.871093-4.5625 6-10.347657 6.015625-16.332032 0-14.136718-11.460938-25.601562-25.597656-25.601562-2.042969.023437-4.074219.292968-6.050782.804687-3.21875-3.816406-6.445312-7.425781-9.769531-10.691406-26.058594-25.851563-59.742187-42.632813-96.070313-47.867187-2.917968-11.21875-13.046874-19.054688-24.644531-19.054688-11.59375 0-21.726562 7.835938-24.644531 19.054688-36.296875 5.222656-69.953125 21.976562-96 47.789062-1.425781 1.398438-2.832031 2.859375-4.265625 4.359375-3.582031-1.894531-7.570313-2.902344-11.621094-2.925781-10.621093-.042969-20.15625 6.496094-23.933593 16.421875-3.78125 9.921875-1.015626 21.148437 6.941406 28.179687-11.253906 23.171875-17.117188 48.59375-17.144532 74.351563.074219 12.773437 1.722657 25.488281 4.917969 37.855469-8.253906 4.429687-13.4179685 13.023437-13.4492185 22.390624zm17.0664065 0c0-4.710937 3.820312-8.53125 8.535156-8.53125 4.710937 0 8.53125 3.820313 8.53125 8.53125 0 4.714844-3.820313 8.535157-8.53125 8.535157-4.714844 0-8.535156-3.820313-8.535156-8.535157zm29.867187 15.890626c-.195312-.34375-.375-.710938-.574218-1.066407 5.117187-7.027343 6.238281-16.203125 2.964843-24.253906l32.082031-28.117187c1.257813.714843 2.570313 1.316406 3.925782 1.808593v103.425781l-2.78125-3.363281c-13.3125-15.035156-25.234375-31.246093-35.617188-48.433593zm17.484375-156.160157 115.132813 24.214844v.480469l-68.617188 36.921875c-4.660156-4.273438-10.746094-6.65625-17.066406-6.679688-1.347656.027344-2.695312.164063-4.019531.410157l-28.160157-51.679688c1.027344-1.152344 1.949219-2.394531 2.757813-3.710938zm229.75 8.976563c.570313.847656 1.191407 1.664062 1.851563 2.441406l-51.964844 86.707031c-1.535156-.300781-3.089844-.457031-4.652344-.46875l-18.925781-56.773437c5.378906-4.199219 8.84375-10.382813 9.617187-17.160156zm26.300781 11.390625c6.113282 14.316406 9.972657 29.492187 11.433594 44.988281-9.574218 3.804688-15.9375 12.976562-16.144531 23.277344l-56.773437 18.929687c-.125-.171875-.261719-.324219-.390626-.488281l52.019532-86.792969c1.683594.347657 3.398437.523438 5.121094.523438 1.597656-.011719 3.191406-.171875 4.761718-.480469zm-132.734374 19.355469c4.550781 4.148437 10.453124 6.507812 16.613281 6.628906l18.925781 56.773437c-1.898438 1.464844-3.585938 3.1875-5.007812 5.121094l-98.945313-29.152344c-.050781-.851562-.128906-1.644531-.246094-2.457031zm11.707031 185.214843-.070313.042969c-.984375.402344-2.039062.613281-3.105468.621094-4.371094-.003906-8.035157-3.3125-8.480469-7.664063-.441407-4.351562 2.472656-8.335937 6.757812-9.222656 4.28125-.890625 8.542969 1.605469 9.867188 5.773437 1.324219 4.167969-.71875 8.660157-4.730469 10.40625-.121094.027344-.195312.007813-.265625.042969zm-83.304688-3.175781c-3.015625-5.421875-7.894531-9.5625-13.738281-11.65625v-103.96875l72.535156 96.757812c-1.949218 2.941407-3.261718 6.253907-3.859375 9.730469zm80.128907-30.292969c-2.574219.035157-5.128907.464844-7.578126 1.273438l-72.632812-96.847657 97.398438 28.714844c.332031 6.414063 3.078124 12.464844 7.679687 16.941406l-22.734375 50.105469c-.679688-.03125-1.382812-.1875-2.132812-.1875zm42.667968-59.730469c-4.714844 0-8.535156-3.824218-8.535156-8.535156 0-4.710937 3.820312-8.535156 8.535156-8.535156 4.710938 0 8.53125 3.824219 8.53125 8.535156 0 4.710938-3.820312 8.535156-8.53125 8.535156zm-136.535156-51.203124c0 4.714843-3.820312 8.535156-8.53125 8.535156-4.714844 0-8.535156-3.820313-8.535156-8.535156 0-4.710938 3.820312-8.53125 8.535156-8.53125 4.710938 0 8.53125 3.820312 8.53125 8.53125zm16.617188 158.046874 54.980468-9.140624c.195313.351562.363282.726562.578125 1.070312l-42.042969 52.589844c-4.1875-12.449219-9.921874-24.320313-17.066406-35.335938 1.769532-2.800781 2.972656-5.921875 3.550782-9.183594zm68.898437 2.558594c2.675781.980469 5.5 1.496094 8.351563 1.527344.351562 0 .675781-.082031 1.015624-.101562l20.546876 51.304687h-72.0625zm25.195313-4.949218c4.859374-4.257813 7.910156-10.207032 8.535156-16.636719l52.8125-13.269531c-18.765625 20.445312-34.183594 43.726562-45.6875 68.980468zm60.214843-47.222657-55.722656 13.996094c-1.039063-1.546875-2.242187-2.980469-3.585937-4.265625l22.734374-50.109375c.730469.066406 1.433594.222656 2.183594.222656 3.21875-.015625 6.402344-.644531 9.386719-1.851562l28.160156 32.050781c-1.742187 3.0625-2.816406 6.460938-3.15625 9.964844zm-59.992187-168.164062c0 4.710937-3.820313 8.53125-8.53125 8.53125-4.714844 0-8.535156-3.820313-8.535156-8.53125 0-4.714844 3.820312-8.535157 8.535156-8.535157 4.710937 0 8.53125 3.820313 8.53125 8.535157zm-128 213.332031c0-4.714844 3.820312-8.535156 8.535156-8.535156 4.710938 0 8.53125 3.820312 8.53125 8.535156 0 4.710938-3.820312 8.53125-8.53125 8.53125-4.714844 0-8.535156-3.820312-8.535156-8.53125zm136.535156 136.53125c0 9.425781-7.640625 17.070312-17.066406 17.070312h-51.199219c-9.425781 0-17.070313-7.644531-17.070313-17.070312v-25.597656h85.335938zm0-42.664062h-102.402344v-17.066407h119.46875v17.066407zm76.800781-128c-2.167969-.011719-4.25-.855469-5.8125-2.355469-.042969 0-.058593-.09375-.101562-.128907-.042969-.035156-.113281-.042968-.164063-.085937-2.839844-2.90625-3.238281-7.414063-.949218-10.769531 2.292968-3.359375 6.632812-4.636719 10.375-3.054688 3.742187 1.582032 5.851562 5.585938 5.039062 9.570313-.816406 3.980469-4.324219 6.835937-8.386719 6.824219zm12.796875-43.84375c-1.996094 3.582031-4.207031 7.097656-6.507812 10.578124-5.195313-1.433593-10.71875-1.085937-15.695313.984376l-28.140625-32.0625c2.085938-3.640626 3.230469-7.746094 3.328125-11.945313l56.769531-18.925781c2.097657 2.683594 4.707032 4.921875 7.679688 6.585937-3.667969 15.675781-9.535156 30.753907-17.433594 44.785157zm29.867188-58.558594c-4.710938 0-8.53125-3.820313-8.53125-8.53125 0-4.714844 3.820312-8.535156 8.53125-8.535156 4.714844 0 8.535156 3.820312 8.535156 8.535156 0 4.710937-3.820312 8.53125-8.535156 8.53125zm-17.066406-102.398438c0 4.710938-3.820313 8.535156-8.53125 8.535156-4.714844 0-8.535157-3.824218-8.535157-8.535156 0-4.710937 3.820313-8.535156 8.535157-8.535156 4.710937 0 8.53125 3.824219 8.53125 8.535156zm-28.902344-15.359375c-2.726563 3.625-4.433594 7.914063-4.933594 12.425781l-64.09375 14.785157c-4.230469-6.585938-11.25-10.867188-19.042969-11.613281l-13.996093-55.703126c4.027343-2.679687 7.21875-6.441406 9.199218-10.855468 32.308594 4.898437 62.226563 19.949218 85.417969 42.972656 2.527344 2.484375 5 5.179688 7.449219 7.988281zm-116.164063-69.972656c4.714844 0 8.535157 3.820313 8.535157 8.53125v.179687c-.347657 4.445313-4.050782 7.875-8.507813 7.875s-8.164063-3.429687-8.507813-7.875v-.085937l-.050781-.09375c0-4.710937 3.820313-8.53125 8.53125-8.53125zm-23.296875 19.011719c3.773438 8.324218 11.710938 13.992187 20.804688 14.863281l13.996094 55.722656c-3.117188 2.089844-5.738282 4.835938-7.679688 8.046875l-115.105469-24.257812c-.292969-2.351563-.914062-4.648438-1.84375-6.828125 1.476563-1.585938 2.953125-3.105469 4.460938-4.582031 23.175781-23.015626 53.074219-38.0625 85.367187-42.964844zm-113.234375 49.253906c4.710938 0 8.53125 3.820312 8.53125 8.53125 0 4.714844-3.820312 8.535156-8.53125 8.535156-4.714843 0-8.535156-3.820312-8.535156-8.535156 0-4.710938 3.820313-8.53125 8.535156-8.53125zm-1.152343 34.011719c.390624 0 .757812.121093 1.152343.121093 1.347657-.027343 2.691407-.164062 4.015625-.410156l28.160156 51.679688c-6.570312 7.152344-8.421874 17.457031-4.75 26.453125l-32.035156 28.089843c-2.382812-1.378906-4.980468-2.355468-7.679687-2.890624-3.101563-11.46875-4.707031-23.289063-4.777344-35.167969.023437-23.546875 5.46875-46.769531 15.914063-67.875zm0 0" fill="#ef3365" data-original="#000000" style="" class=""/></g></svg>
